<svg
  xmlns="http://www.w3.org/2000/svg"
  width="1024"
  height="1024"
  viewBox="250 220 520 520"
>
  <defs>
    <linearGradient
      id="gradient_0"
      x1="427.75916"
      x2="707.31042"
      y1="456.62335"
      y2="717.37549"
      gradientUnits="userSpaceOnUse"
    >
      <stop offset="0" stop-color="#7d70ff" />
      <stop offset="1" stop-color="#13a5c6" />
    </linearGradient>
  </defs>
  <path
    fill="url(#gradient_0)"
    d="M613.147 416.256C641.89 437.365 670.112 459.703 698.739 481.008L735.019 507.876C741.297 512.559 750.699 519.356 756.25 524.425C757.074 542.878 756.406 566.971 756.375 585.826L756.077 648.501C756.054 651.802 756.565 669.888 755.266 671.416L753.855 671.219C746.377 671.735 735.468 671.436 727.811 671.438L679.928 671.439L617.963 671.443C614.278 671.442 591.638 671.579 590.972 671.15C569.584 657.378 521.115 619.654 504.212 606.824L464.308 576.663C456.091 570.488 447.074 564.044 439.165 557.574C438.619 545.177 439.015 530.007 439.01 517.449L439.024 441.699C447.664 447.115 456.871 454.419 465.072 460.644C474.251 467.584 483.489 474.445 492.785 481.226L613.477 570.562L613.194 461.322C613.191 446.763 612.83 430.719 613.147 416.256Z"
  />
  <path
    fill="#f4efe7"
    d="M613.147 416.256C641.89 437.365 670.112 459.703 698.739 481.008L735.019 507.876C741.297 512.559 750.699 519.356 756.25 524.425C757.074 542.878 756.406 566.971 756.375 585.826L756.077 648.501C756.054 651.802 756.565 669.888 755.266 671.416L753.855 671.219C749.456 666.494 733.368 655.917 727.466 651.83C714.602 642.938 701.81 633.941 689.093 624.841C672.261 613.006 655.502 601.068 638.817 589.026C630.525 583.037 621.939 575.973 613.477 570.562L613.194 461.322C613.191 446.763 612.83 430.719 613.147 416.256Z"
  />
  <path
    fill="#b8eef8"
    d="M267.943 273.068C280.044 272.535 293.256 272.837 305.399 272.874L353.985 272.728L394.21 272.685C400.204 272.701 411.447 272.523 417.017 273.145C426.73 279.623 442.264 292.618 451.963 300.236C470.417 314.692 488.975 329.016 507.633 343.208C523.258 355.249 538.946 367.209 554.697 379.086C560.69 383.612 574.802 393.721 579.445 398.117L579.478 509.436C566.962 499.618 553.5 489.928 540.699 480.358L468.707 426.574L425.629 394.467C420.13 390.394 409.673 382.222 404.129 378.793C404.605 381.289 404.438 390.061 404.434 393.002L404.428 421.248L404.867 494.223C404.92 505.844 404.658 517.753 404.849 529.328C389.208 518.624 371.959 505.085 356.613 493.625L267.502 427.051L267.808 320.557C267.814 315.593 267.376 274.261 267.943 273.068Z"
  />
  <path
    fill="#ffd4af"
    d="M267.502 427.051L267.808 320.557C267.814 315.593 267.376 274.261 267.943 273.068C277.732 281.857 293.786 293.371 304.732 301.761L373.154 354.348C381.19 360.558 397.094 372.281 404.129 378.793C404.605 381.289 404.438 390.061 404.434 393.002L404.428 421.248L404.867 494.223C404.92 505.844 404.658 517.753 404.849 529.328C389.208 518.624 371.959 505.085 356.613 493.625L267.502 427.051Z"
  />
  <path
    fill="#5a8fff"
    d="M613.924 272.359C625.134 272.861 638.829 272.535 650.192 272.546L712.622 272.585C724.635 272.563 745.792 271.828 756.536 273.596C756.123 292.937 756.405 313.051 756.449 332.451L756.459 433.877L756.237 468.539C756.231 473.322 756.58 479.572 756.346 484.178C743.229 476.06 720.849 458.33 707.902 448.602L617.395 380.649C615.385 379.295 613.623 377.943 613.528 375.362C613.178 365.776 613.503 355.982 613.49 346.382C613.348 321.707 613.493 297.031 613.924 272.359Z"
  />
  <path
    fill="#ff7f6c"
    d="M613.924 272.359C625.134 272.861 638.829 272.535 650.192 272.546L712.622 272.585C724.635 272.563 745.792 271.828 756.536 273.596C752.212 276.053 746.389 280.901 742.369 284.088L721.305 300.712L657.743 349.811C644.556 360.052 631.14 371.393 617.395 380.649C615.385 379.295 613.623 377.943 613.528 375.362C613.178 365.776 613.503 355.982 613.49 346.382C613.348 321.707 613.493 297.031 613.924 272.359Z"
  />
  <path
    fill="#c6c0ff"
    d="M267.955 464.398C281.26 473.558 296.66 486.12 309.687 496.121L365.558 538.426C377.671 547.712 390.94 558.669 403.548 566.914C405.233 570.453 403.899 661.636 404.243 671.454C395.521 670.64 376.257 671.459 366.897 671.489L288.799 671.408C286.016 671.393 269.086 671.529 267.806 671.084C268.981 602.523 267.37 533.056 267.955 464.398Z"
  />
  <path
    fill="#628fdb"
    d="M403.548 566.914C405.233 570.453 403.899 661.636 404.243 671.454C395.521 670.64 376.257 671.459 366.897 671.489L288.799 671.408C286.016 671.393 269.086 671.529 267.806 671.084C276.246 663.811 287.028 656.18 295.994 649.291L346.851 610.011L379.372 584.828C386.416 579.311 396.052 571.292 403.548 566.914Z"
  />
</svg>
